<?xml version="1.0" encoding="UTF-8"?>
<!-- Generator: visioncortex VTracer 0.6.3 -->
<svg version="1.1" xmlns="http://www.w3.org/2000/svg" width="1280" height="377">
<path d="M0 0 C422.4 0 844.8 0 1280 0 C1280 124.41 1280 248.82 1280 377 C857.6 377 435.2 377 0 377 C0 252.59 0 128.18 0 0 Z " fill="#FAFCFC" transform="translate(0,0)"/>
<path d="M0 0 C3.16 2.43 4.8 4.7 7 8 C8.11 17.79 6.25 26.42 3.31 35.69 C2.92 36.99 2.52 38.28 2.13 39.58 C1.03 43.23 -0.1 46.87 -1.23 50.51 C-3.57 58.07 -5.87 65.64 -8.17 73.21 C-9.05 76.09 -9.94 78.97 -10.83 81.84 C-11.38 83.63 -11.93 85.41 -12.47 87.2 C-12.86 88.42 -12.86 88.42 -13.25 89.67 C-14.43 93.55 -15.33 96.89 -15 101 C-13.53 100.98 -13.53 100.98 -12.03 100.97 C8.43 100.77 28.62 101.02 49 103 C49.21 102.1 49.42 101.19 49.64 100.26 C52.48 88.44 55.99 76.85 59.62 65.25 C59.93 64.27 60.24 63.28 60.56 62.27 C64.38 50.05 68.27 37.84 72.5 25.75 C72.87 24.66 73.24 23.58 73.63 22.46 C76.42 14.69 80.27 6.16 87 1 C88.32 1 89.64 1 91 1 C90.41 5.97 89.37 10.44 87.82 15.23 C87.61 15.9 87.39 16.57 87.17 17.26 C86.5 19.38 85.81 21.5 85.12 23.62 C79.47 39.04 79.47 39.04 77 55 C85.09 54.24 93.19 53.47 101.28 52.7 C105.04 52.35 108.8 51.99 112.56 51.64 C116.19 51.3 119.82 50.95 123.45 50.61 C124.83 50.48 126.21 50.35 127.59 50.22 C129.54 50.03 131.48 49.85 133.42 49.66 C134.53 49.56 135.63 49.46 136.77 49.35 C139.04 49.1 141.3 48.81 143.56 48.48 C146.59 48.06 149.55 47.79 152.6 47.63 C153.65 47.57 154.71 47.51 155.79 47.45 C156.92 47.4 158.04 47.34 159.2 47.28 C160.38 47.22 161.56 47.16 162.78 47.09 C166.56 46.89 170.34 46.7 174.12 46.5 C176.61 46.37 179.1 46.24 181.59 46.11 C194.16 45.44 194.16 45.44 199.13 45.2 C201.88 45.06 204.62 44.9 207.37 44.74 C222.53 43.87 237.7 43.85 252.88 43.83 C257.75 43.83 262.62 43.81 267.49 43.79 C269.18 43.78 270.88 43.78 272.57 43.77 C273.42 43.77 274.27 43.76 275.14 43.76 C286.43 43.72 297.71 43.69 309 43.67 C355.03 43.62 400.81 42.34 446.75 39.4 C454.14 38.92 461.53 38.48 468.92 38.04 C470.35 37.95 471.78 37.87 473.21 37.78 C487.63 36.91 502.06 36.36 516.51 35.94 C518.61 35.87 520.72 35.81 522.83 35.74 C539.12 35.25 555.4 34.93 571.7 34.98 C572.42 34.98 573.14 34.98 573.88 34.99 C581.45 35.01 589 35.06 596.56 35.16 C619.71 35.39 642.64 33.72 665.44 29.55 C668.35 29.02 671.27 28.53 674.19 28.03 C676.52 27.63 678.86 27.23 681.19 26.82 C750.05 15 750.05 15 768.02 26.27 C771.29 28.69 773.1 31.06 774 35 C774.24 38.02 774.4 40.99 774 44 C771.64 46.36 770.78 46.37 767.55 46.79 C766.61 46.91 765.68 47.04 764.71 47.17 C763.69 47.29 762.67 47.42 761.61 47.55 C760.54 47.69 759.47 47.83 758.37 47.97 C754.83 48.43 751.29 48.87 747.75 49.31 C745.28 49.63 742.81 49.94 740.35 50.25 C719.55 52.88 698.73 55.22 677.89 57.39 C672.62 57.93 667.36 58.49 662.09 59.06 C657.66 59.53 653.22 60 648.78 60.47 C646.66 60.7 644.53 60.92 642.41 61.15 C639.46 61.46 636.51 61.77 633.57 62.08 C632.7 62.18 631.83 62.27 630.94 62.37 C626.26 62.85 621.7 63.09 617 63 C617 63.66 617 64.32 617 65 C617.67 64.85 618.35 64.69 619.04 64.53 C622.47 63.92 625.81 63.69 629.29 63.49 C630.37 63.43 630.37 63.43 631.47 63.36 C633.03 63.27 634.6 63.18 636.16 63.09 C638.68 62.95 641.2 62.8 643.71 62.65 C647.31 62.44 650.91 62.23 654.52 62.02 C682.91 60.36 711.28 58.63 739.62 56.17 C750.12 55.27 760.46 54.77 771 55 C772.32 59.7 772.05 64.32 771.96 69.16 C771.92 72.63 772.06 75.66 773 79 C779.85 79.22 785.94 78.43 792.62 77 C808.03 73.74 808.03 73.74 816.12 77.25 C817.12 77.67 818.11 78.09 819.13 78.52 C823.32 80.69 826.47 82.42 828 87 C828.1 88.76 828.15 90.53 828.16 92.29 C828.17 93.38 828.18 94.46 828.19 95.57 C828.19 96.74 828.2 97.91 828.2 99.11 C828.21 100.32 828.21 101.52 828.22 102.76 C828.23 105.3 828.24 107.85 828.24 110.4 C828.25 114.29 828.28 118.18 828.31 122.07 C828.32 124.54 828.32 127.01 828.33 129.49 C828.35 131.23 828.35 131.23 828.37 133.01 C828.35 139.76 827.88 144.41 823.53 149.84 C821.71 151.59 819.86 153.29 818 155 C817.29 155.68 816.57 156.36 815.84 157.06 C809.43 162.74 804.84 164.19 796.39 164.26 C795.26 164.3 794.13 164.34 792.97 164.39 C790.51 164.47 788.05 164.54 785.59 164.6 C781.58 164.69 777.59 164.83 773.59 164.98 C772.55 165.02 772.55 165.02 771.5 165.06 C770.08 165.12 768.65 165.17 767.23 165.23 C765.04 165.31 762.85 165.39 760.65 165.47 C744.27 166.05 727.91 167.03 711.54 168.09 C709.93 168.2 708.32 168.3 706.71 168.41 C668.5 170.85 629.9 173.44 592 179 C593.13 178.98 594.26 178.95 595.42 178.93 C623.25 178.32 651.09 177.71 678.92 177.14 C684.26 177.03 689.6 176.91 694.94 176.8 C716.38 176.34 737.83 175.91 759.28 175.88 C760.05 175.88 760.82 175.87 761.62 175.87 C770.79 175.84 779.86 176.13 789 177 C787.07 181.44 784.03 183.3 780 185.75 C779.29 186.18 778.58 186.62 777.85 187.07 C758.28 198.74 738.79 203.78 716.21 205.48 C714.58 205.61 712.94 205.74 711.31 205.87 C694.2 207.19 677.08 208.25 659.96 209.29 C652.11 209.76 644.26 210.24 636.41 210.73 C635.55 210.78 634.68 210.83 633.79 210.89 C621.93 211.62 610.07 212.39 598.21 213.21 C596.83 213.31 595.44 213.4 594.06 213.5 C587.74 213.93 581.43 214.38 575.12 214.83 C563.16 215.67 551.32 216.17 539.33 216.01 C534.19 215.96 529.1 216.33 524 217 C524 216.34 524 215.68 524 215 C522.99 215.62 521.98 216.24 520.94 216.88 C514.48 220.83 507.87 221.32 500.5 221.25 C499.68 221.26 498.87 221.27 498.03 221.27 C492.97 221.26 488.79 220.62 484 219 C484 219.66 484 220.32 484 221 C483.03 221.08 482.06 221.16 481.06 221.25 C471.77 222.02 462.48 222.8 453.19 223.58 C448.42 223.98 443.65 224.38 438.88 224.78 C416.81 226.63 394.76 228.54 372.73 230.65 C366.48 231.24 360.23 231.82 353.98 232.39 C352.74 232.51 351.5 232.62 350.23 232.74 C339.15 233.77 328.07 234.78 316.99 235.8 C308.68 236.57 300.38 237.34 292.07 238.11 C255.67 241.51 219.24 244.58 182.8 247.46 C181.94 247.53 181.08 247.6 180.2 247.67 C179.34 247.74 178.48 247.81 177.6 247.88 C176.74 247.94 175.89 248.01 175 248.08 C173.26 248.22 171.51 248.36 169.77 248.5 C157.01 249.51 144.25 250.56 131.5 251.63 C99.49 254.32 67.46 256.85 35.44 259.38 C34.67 259.44 33.91 259.5 33.12 259.56 C-14.35 263.29 -61.83 266.93 -109.35 270.04 C-118.66 270.64 -127.96 271.27 -137.27 271.91 C-144.36 272.4 -151.46 272.89 -158.56 273.36 C-162.69 273.64 -166.82 273.92 -170.95 274.21 C-231.77 278.47 -231.77 278.47 -256.69 273.12 C-280.91 268.21 -305.28 267.66 -329.92 267.4 C-333.56 267.36 -337.19 267.31 -340.83 267.26 C-347.88 267.16 -354.94 267.08 -362 267 C-362.05 266.42 -362.11 265.85 -362.17 265.25 C-362.42 262.61 -362.67 259.98 -362.93 257.34 C-363.02 256.43 -363.1 255.52 -363.19 254.59 C-363.62 250.18 -364.1 245.88 -365.12 241.56 C-366.55 235.14 -367.64 227.29 -364.64 221.27 C-359.36 213.95 -351.94 210.86 -343.24 209.34 C-332.56 207.89 -321.76 207.45 -311 207 C-310.95 204.71 -310.91 202.42 -310.88 200.12 C-310.85 198.85 -310.83 197.57 -310.8 196.26 C-310.64 192.91 -310.64 192.91 -313 191 C-315 190.33 -315 190.33 -317.33 189.85 C-318.21 189.65 -319.08 189.45 -319.98 189.25 C-320.92 189.04 -321.85 188.84 -322.81 188.62 C-336.69 185.42 -349.26 181.36 -362 175 C-363 174.5 -364.01 174.01 -365.04 173.5 C-381.75 164.85 -381.75 164.85 -385 157 C-385.27 154.85 -385.27 154.85 -385.31 152.51 C-385.32 151.63 -385.34 150.75 -385.35 149.84 C-385.36 148.89 -385.37 147.95 -385.37 146.98 C-385.38 145.51 -385.38 145.51 -385.4 144.01 C-385.41 141.94 -385.42 139.87 -385.43 137.8 C-385.44 134.64 -385.49 131.49 -385.54 128.33 C-385.55 126.32 -385.55 124.3 -385.56 122.29 C-385.58 121.35 -385.6 120.41 -385.62 119.44 C-385.59 115.1 -385.47 111.98 -382.71 108.51 C-380.48 106.44 -378.73 104.93 -376.02 103.62 C-375.28 103.26 -374.54 102.9 -373.77 102.53 C-372.59 101.99 -372.59 101.99 -371.38 101.44 C-370.11 100.86 -370.11 100.86 -368.83 100.27 C-360.11 96.4 -351.31 93.94 -342 92 C-341.02 91.79 -340.03 91.59 -339.02 91.38 C-311.4 85.73 -283.41 82.48 -255.34 80.19 C-253.73 80.06 -252.13 79.92 -250.53 79.79 C-224.6 77.54 -198.56 76.69 -172.56 75.56 C-163.11 75.15 -153.65 74.74 -144.19 74.32 C-143.03 74.26 -141.87 74.21 -140.68 74.16 C-120.49 73.26 -100.31 72.15 -80.14 70.94 C-79.1 70.87 -78.05 70.81 -76.98 70.75 C-75.04 70.63 -73.1 70.51 -71.16 70.39 C-66.77 70.13 -62.41 69.93 -58 70 C-58.43 69.2 -58.43 69.2 -58.88 68.38 C-63.16 59.78 -62.97 53.3 -60.06 44.19 C-52.52 24.63 -36.66 10.81 -18 2 C-12.37 -0.17 -5.97 -1.03 0 0 Z " fill="#F9DCBB" transform="translate(426,17)"/>
<path d="M0 0 C1.71 3.63 2.01 5.2 1 9 C-0.72 23.01 3.91 35.77 8 49 C13.1 65.64 15.33 80.59 15 98 C25.39 96.68 33.57 90.02 40 82 C42.96 77.5 45.51 72.77 48 68 C48.66 68 49.32 68 50 68 C51.06 70.71 51.05 71.86 50.1 74.66 C42.68 89.54 32.99 97.9 17.35 103.24 C16.57 103.49 15.8 103.74 15 104 C11.15 105.28 10.89 106.58 8.94 110.06 C4.04 117.98 -2.64 124.35 -11.9 126.6 C-25.67 128.39 -37.34 127.95 -48.88 119.69 C-56.4 113.41 -57.99 106.28 -60 97 C-61.13 97.98 -62.25 98.96 -63.38 99.94 C-64.11 100.57 -64.84 101.21 -65.6 101.87 C-67.21 103.3 -68.81 104.77 -70.37 106.26 C-78.34 113.78 -86.88 119.74 -98 121 C-98.8 121.09 -99.6 121.19 -100.43 121.29 C-107.21 121.7 -112.42 119.86 -118 116 C-121.71 111.27 -122.14 107.02 -122.12 101.12 C-122.13 99.91 -122.13 98.7 -122.13 97.45 C-122.02 94.49 -121.69 91.87 -121 89 C-121.66 90.65 -122.32 92.3 -123 94 C-123.66 94 -124.32 94 -125 94 C-126.41 95.93 -127.71 97.87 -129 99.88 C-135.05 108.89 -142.01 118.17 -153 121 C-159.15 122.1 -163.91 120.33 -169 117 C-177.57 110.18 -178.79 100.31 -180 90 C-180.56 90.7 -181.11 91.4 -181.69 92.12 C-195 108.68 -211.23 123.48 -233 127 C-246.26 128.3 -258.03 127.49 -269 119.25 C-275.17 113.36 -276.71 105.12 -278 97 C-281.22 99.72 -284.41 102.43 -287.46 105.34 C-303.29 120.36 -320.36 127.85 -342.06 127.38 C-350.59 126.93 -358.4 123.65 -364.61 117.71 C-369.8 111.32 -371.25 102.84 -373 95 C-373.45 95.45 -373.89 95.89 -374.36 96.36 C-375.62 97.62 -376.88 98.88 -378.15 100.14 C-379.57 101.56 -380.95 103.02 -382.31 104.5 C-392.09 113.59 -403.97 119.5 -417.53 119.27 C-423.65 118.6 -429.18 116.32 -433.5 111.88 C-438.55 105.12 -438.43 96.94 -437.59 88.86 C-433.97 65.3 -425.28 33.55 -406.22 17.5 C-401.81 14.61 -398.07 14.64 -393 15 C-391.24 17.58 -391 18.97 -391.16 22.12 C-392.18 26.84 -394.08 30.31 -396.5 34.44 C-396.95 35.22 -397.39 36 -397.85 36.81 C-399.22 39.21 -400.61 41.61 -402 44 C-417.33 70.17 -417.33 70.17 -419.38 99.75 C-418.06 102.85 -417.06 104.66 -414.1 106.34 C-408.1 108.23 -400.68 108.14 -394.88 105.62 C-380.07 96.64 -371.43 82.58 -365.55 66.77 C-357.38 45.87 -338.55 24.21 -317.94 15.12 C-308.42 11.49 -298.95 9.28 -289.12 13.12 C-284.3 17.38 -282.26 22.77 -281.75 29.06 C-282.7 43.97 -290.62 55.6 -301.58 65.28 C-316.25 77 -333.68 82.79 -352 86 C-354.38 94.09 -353.86 103.47 -350 111 C-345.24 116.92 -340.3 119.04 -332.88 119.88 C-316.34 120.74 -303.89 112.33 -291.99 101.77 C-282.86 93.43 -277.53 85.2 -273.81 73.5 C-266.09 50.47 -248.9 27.62 -226.99 16.47 C-217.47 12.28 -208.36 9.78 -198 12 C-193.41 13.9 -191.44 16.73 -189 21 C-186.3 29.9 -188.32 38.7 -192 47 C-202.77 64.53 -219.46 75 -238.56 81.5 C-239.31 81.76 -240.06 82.01 -240.83 82.27 C-245.04 83.62 -248.54 84.18 -253 84 C-255.8 84.62 -255.8 84.62 -258 86 C-260.76 93.74 -259.54 103.16 -256.43 110.58 C-253.82 115.01 -250.8 117.24 -246 119 C-232.99 121.7 -222.12 118.96 -211 112 C-191.79 99.28 -179.33 82.25 -172.62 60.25 C-170.49 53.25 -168.17 46.52 -164.94 39.94 C-164.63 39.3 -164.33 38.67 -164.02 38.01 C-161.68 33.48 -159.12 30.87 -155 28 C-151.38 27.81 -151.38 27.81 -148 29 C-145.79 32.07 -145.79 32.07 -144 35 C-144.73 36.31 -144.73 36.31 -145.47 37.66 C-149.93 46 -153.4 54.45 -156.38 63.44 C-156.71 64.44 -157.04 65.45 -157.38 66.48 C-161.39 78.92 -164.77 92.22 -160 105 C-157.94 107.95 -156.61 108.78 -153.25 110 C-147.73 110 -144.05 107.85 -139.99 104.18 C-134.3 98.13 -130.12 91.18 -126 84 C-125.63 83.35 -125.25 82.71 -124.87 82.04 C-117.8 69.77 -111.47 57.15 -105.21 44.46 C-103.82 41.63 -102.41 38.81 -101 36 C-91.69 36.93 -91.69 36.93 -89 39 C-87.75 41.17 -87.75 41.17 -87 44 C-87.84 47.07 -87.84 47.07 -89.38 50.56 C-89.94 51.9 -90.51 53.23 -91.08 54.57 C-91.39 55.28 -91.7 55.99 -92.02 56.73 C-103.14 80.43 -103.14 80.43 -105.38 105.81 C-104.23 109.04 -104.23 109.04 -101.94 111 C-96.47 112.86 -91.25 111.79 -86.06 109.44 C-75.52 103.64 -63.09 93.62 -59.27 81.74 C-58.95 80.6 -58.95 80.6 -58.62 79.44 C-57.05 74.33 -54.24 71.19 -50 68 C-48.75 67.38 -47.48 66.79 -46.19 66.25 C-32.41 59.85 -21.27 39.06 -14.96 25.87 C-13.53 21.61 -13.42 17.46 -13.26 13 C-12.87 8.48 -11.49 5.77 -9 2 C-5.87 0.09 -3.66 -0.2 0 0 Z " fill="#202021" transform="translate(951,111)"/>
<path d="M0 0 C3.16 2.43 4.8 4.7 7 8 C8.11 17.79 6.25 26.42 3.31 35.69 C2.92 36.99 2.52 38.28 2.13 39.58 C1.03 43.23 -0.1 46.87 -1.23 50.51 C-3.57 58.07 -5.87 65.64 -8.17 73.21 C-9.05 76.09 -9.94 78.97 -10.83 81.84 C-11.38 83.63 -11.93 85.41 -12.47 87.2 C-12.86 88.42 -12.86 88.42 -13.25 89.67 C-14.43 93.55 -15.33 96.89 -15 101 C-13.53 100.98 -13.53 100.98 -12.03 100.97 C8.43 100.77 28.62 101.02 49 103 C49.21 102.1 49.42 101.19 49.64 100.26 C52.48 88.44 55.99 76.85 59.62 65.25 C59.93 64.27 60.24 63.28 60.56 62.27 C64.38 50.05 68.27 37.84 72.5 25.75 C72.87 24.66 73.24 23.58 73.63 22.46 C76.42 14.69 80.27 6.16 87 1 C88.32 1 89.64 1 91 1 C90.44 5.58 89.58 9.76 88.14 14.14 C87.75 15.33 87.36 16.53 86.97 17.76 C86.76 18.4 86.55 19.03 86.34 19.69 C81.69 33.99 77.57 48.43 73.62 62.94 C73.25 64.32 73.25 64.32 72.86 65.74 C66.92 83.64 66.92 83.64 64 102 C65.13 102.06 66.26 102.12 67.43 102.18 C68.91 102.27 70.39 102.35 71.88 102.44 C72.62 102.48 73.37 102.52 74.14 102.56 C79.77 102.89 79.77 102.89 82 104 C82 104.66 82 105.32 82 106 C81.34 106 80.68 106 80 106 C79.67 106.99 79.34 107.98 79 109 C73.53 113.27 66.74 114.06 60 114 C57.01 127.15 54.24 140.34 51.59 153.57 C50.94 156.8 50.28 160.03 49.62 163.26 C46.14 180.49 42.76 197.81 42.31 215.44 C42.28 216.39 42.24 217.34 42.21 218.32 C42.05 222.88 41.96 227.44 42 232 C36.4 231.53 31.64 230.31 27 227 C18.56 214.21 23.42 194.55 26.22 180.61 C30.96 158.8 37.49 137.33 44 116 C42.93 114.71 42.93 114.71 40.41 114.88 C38.68 114.88 38.68 114.88 36.92 114.89 C35.62 114.89 34.32 114.89 32.98 114.89 C31.55 114.89 30.11 114.9 28.68 114.9 C27.23 114.9 25.77 114.91 24.32 114.91 C20.48 114.91 16.64 114.92 12.8 114.93 C8.89 114.94 4.97 114.95 1.06 114.95 C-6.63 114.96 -14.31 114.98 -22 115 C-22.11 115.61 -22.22 116.22 -22.33 116.85 C-23.48 122.94 -25.05 128.75 -26.98 134.64 C-27.28 135.55 -27.57 136.45 -27.87 137.38 C-28.83 140.34 -29.79 143.3 -30.75 146.25 C-34.93 159.13 -39.05 172.02 -42.89 185.01 C-43.21 186.05 -43.52 187.1 -43.84 188.18 C-45.04 192.23 -46.25 196.28 -47.42 200.34 C-54.54 225 -54.54 225 -65.17 231.22 C-67 232 -67 232 -70 232 C-71.2 228.39 -70.71 226.78 -69.88 223.09 C-69.47 221.26 -69.47 221.26 -69.06 219.39 C-68.75 218.05 -68.44 216.71 -68.12 215.38 C-67.97 214.69 -67.81 214.01 -67.65 213.31 C-62.18 189.49 -55.58 166.03 -47.92 142.82 C-46.41 138.21 -44.96 133.57 -43.5 128.94 C-43.01 127.38 -42.52 125.83 -42.03 124.28 C-41.69 123.2 -41.35 122.11 -41 121 C-44.55 119.82 -46.98 120.11 -50.69 120.44 C-52.46 120.59 -52.46 120.59 -54.26 120.75 C-55.17 120.83 -56.07 120.91 -57 121 C-58.14 117.31 -58.14 117.31 -56.88 114.5 C-52.71 108.95 -48.04 107.08 -41.62 104.93 C-37.02 103.52 -37.02 103.52 -33.99 100.09 C-33.62 98.92 -33.62 98.92 -33.25 97.72 C-32.97 96.83 -32.68 95.94 -32.39 95.02 C-32.09 94.04 -31.8 93.07 -31.5 92.06 C-31.18 91.05 -30.86 90.03 -30.53 88.98 C-29.48 85.66 -28.46 82.33 -27.44 79 C-26.73 76.72 -26.01 74.44 -25.3 72.16 C-24.23 68.72 -23.15 65.28 -22.08 61.84 C-19.96 55.01 -17.77 48.21 -15.5 41.43 C-15.24 40.65 -14.98 39.87 -14.71 39.06 C-12.75 33.16 -12.75 33.16 -11.79 30.36 C-9.27 23.01 -7.39 16.8 -8 9 C-11.01 7.22 -11.01 7.22 -14.4 7.54 C-15.66 8.08 -15.66 8.08 -16.94 8.62 C-17.77 8.97 -18.61 9.31 -19.46 9.66 C-31.68 16.1 -38.8 31.34 -43 44 C-45.71 53.54 -46.46 63.09 -46 73 C-51.67 72.25 -55.62 70.7 -60 67 C-63.28 61.12 -62.75 54.06 -61.2 47.7 C-54.57 27.16 -39.33 13.08 -20.59 3.22 C-14.19 0.2 -7.04 -1.21 0 0 Z " fill="#212121" transform="translate(426,17)"/>
<path d="M0 0 C4.82 4.26 6.86 9.65 7.38 15.94 C6.43 30.85 -1.5 42.47 -12.46 52.16 C-27.13 63.88 -44.56 69.67 -62.88 72.88 C-65.26 80.96 -64.74 90.35 -60.88 97.88 C-57.19 102.46 -53.17 105.37 -47.27 106.28 C-44.8 106.53 -42.35 106.73 -39.88 106.88 C-39.54 107.87 -39.22 108.86 -38.88 109.88 C-31.75 108.17 -24.79 106.3 -17.88 103.88 C-19.25 105.38 -19.25 105.38 -20.88 106.88 C-21.53 106.88 -22.19 106.88 -22.88 106.88 C-23.37 108.36 -23.37 108.36 -23.88 109.88 C-35.02 115.17 -49.68 115.91 -61.57 112.96 C-69.11 110.03 -75.53 106.18 -79.12 98.75 C-81.29 93.29 -82.6 87.59 -83.88 81.88 C-84.32 82.32 -84.77 82.77 -85.23 83.23 C-86.49 84.49 -87.76 85.75 -89.02 87.01 C-90.44 88.44 -91.82 89.9 -93.19 91.38 C-102.96 100.47 -114.85 106.37 -128.41 106.15 C-134.52 105.47 -140.06 103.19 -144.38 98.75 C-149.43 91.99 -149.3 83.81 -148.47 75.73 C-144.84 52.17 -136.16 20.42 -117.1 4.38 C-112.68 1.48 -108.94 1.52 -103.88 1.88 C-102.12 4.46 -101.87 5.84 -102.04 9 C-103.06 13.71 -104.95 17.19 -107.38 21.31 C-107.82 22.1 -108.27 22.88 -108.73 23.68 C-110.1 26.09 -111.49 28.48 -112.88 30.88 C-128.2 57.04 -128.2 57.04 -130.25 86.62 C-128.94 89.73 -127.94 91.53 -124.97 93.21 C-118.97 95.1 -111.56 95.02 -105.75 92.5 C-90.95 83.51 -82.3 69.46 -76.43 53.64 C-68.26 32.75 -49.43 11.08 -28.81 2 C-19.29 -1.64 -9.82 -3.84 0 0 Z " fill="#222222" transform="translate(661.875,124.125)"/>
<path d="M0 0 C1.71 3.63 2.01 5.2 1 9 C-0.72 23.01 3.91 35.77 8 49 C13.1 65.64 15.33 80.59 15 98 C25.39 96.68 33.57 90.02 40 82 C42.96 77.5 45.51 72.77 48 68 C48.66 68 49.32 68 50 68 C51.06 70.71 51.05 71.86 50.1 74.66 C42.68 89.54 32.99 97.9 17.35 103.24 C16.57 103.49 15.8 103.74 15 104 C11.15 105.28 10.89 106.58 8.94 110.06 C4.04 117.98 -2.64 124.35 -11.9 126.6 C-25.67 128.39 -37.34 127.95 -48.88 119.69 C-56.4 113.41 -57.99 106.28 -60 97 C-61.13 97.98 -62.25 98.96 -63.38 99.94 C-64.11 100.57 -64.84 101.21 -65.6 101.87 C-67.21 103.3 -68.81 104.77 -70.37 106.26 C-79.93 115.28 -89.73 121.04 -103.06 121.12 C-104.36 121.08 -105.66 121.04 -107 121 C-104.61 118.61 -103.23 118.65 -100 118 C-99.01 117.01 -99.01 117.01 -98 116 C-98.33 115.01 -98.66 114.02 -99 113 C-98.24 112.85 -97.48 112.71 -96.69 112.55 C-82.3 109.43 -71.23 100.08 -62.45 88.39 C-60.87 85.78 -59.94 83.28 -59 80.38 C-57.18 74.87 -54.69 71.43 -50 68 C-48.75 67.38 -47.47 66.8 -46.19 66.25 C-32.41 59.85 -21.27 39.06 -14.96 25.87 C-13.53 21.61 -13.42 17.46 -13.26 13 C-12.87 8.48 -11.49 5.77 -9 2 C-5.87 0.09 -3.66 -0.2 0 0 Z " fill="#212121" transform="translate(951,111)"/>
<path d="M0 0 C4.25 1.5 5.08 3.43 7.38 7.19 C6.89 8.06 6.41 8.94 5.91 9.84 C1.44 18.19 -2.02 26.64 -5 35.62 C-5.5 37.13 -5.5 37.13 -6.01 38.67 C-10.02 51.1 -13.39 64.4 -8.62 77.19 C-6.56 80.14 -5.24 80.96 -1.88 82.19 C3.64 82.19 7.33 80.04 11.38 76.37 C17.07 70.31 21.26 63.36 25.38 56.19 C25.75 55.54 26.12 54.9 26.51 54.23 C33.57 41.96 39.9 29.34 46.16 16.64 C47.56 13.82 48.96 11 50.38 8.19 C59.69 9.12 59.69 9.12 62.38 11.19 C63.62 13.36 63.62 13.36 64.38 16.19 C63.54 19.25 63.54 19.25 62 22.75 C61.43 24.08 60.86 25.42 60.3 26.75 C59.99 27.47 59.68 28.18 59.36 28.91 C48.24 52.62 48.24 52.62 46 78 C47.61 81.72 48.91 82.32 52.38 84.19 C53 86.31 53 86.31 53.38 88.19 C54.37 88.52 55.36 88.85 56.38 89.19 C56.04 89.85 55.72 90.51 55.38 91.19 C53.41 91.57 53.41 91.57 51 91.75 C48.18 91.98 46.09 92.28 43.38 93.19 C38.66 91.56 34.42 89.51 31.31 85.56 C29.61 81.24 29.24 77.96 29.25 73.31 C29.25 71.49 29.25 71.49 29.24 69.63 C29.36 66.68 29.69 64.06 30.38 61.19 C29.72 62.84 29.06 64.49 28.38 66.19 C27.72 66.19 27.06 66.19 26.38 66.19 C24.97 68.12 23.67 70.06 22.38 72.06 C16.32 81.08 9.37 90.35 -1.62 93.19 C-7.78 94.28 -12.54 92.51 -17.62 89.19 C-26.19 82.37 -27.41 72.49 -28.62 62.19 C-29.18 62.89 -29.74 63.59 -30.31 64.31 C-40.63 77.14 -53.06 90.81 -69.69 94.75 C-72.72 95.47 -75.66 96.2 -78.62 97.19 C-81.36 97.26 -84.08 97.28 -86.81 97.25 C-87.56 97.25 -88.31 97.24 -89.08 97.24 C-90.93 97.22 -92.78 97.21 -94.62 97.19 C-94.62 96.86 -94.62 96.53 -94.62 96.19 C-93.24 96.17 -93.24 96.17 -91.84 96.14 C-81.36 95.75 -71.57 94.15 -62.62 88.19 C-62.13 86.7 -62.13 86.7 -61.62 85.19 C-59.76 83.75 -59.76 83.75 -57.31 82.19 C-39.03 69.73 -27.68 53.54 -21.25 32.44 C-19.11 25.43 -16.8 18.7 -13.56 12.12 C-13.26 11.49 -12.95 10.85 -12.64 10.2 C-9.84 4.76 -6.39 0.33 0 0 Z " fill="#222222" transform="translate(799.625,138.8125)"/>
<path d="M0 0 C1.72 3.43 -0.35 7.02 -1.46 10.52 C-1.72 11.36 -1.98 12.21 -2.25 13.09 C-3.1 15.81 -3.96 18.53 -4.81 21.25 C-5.38 23.07 -5.94 24.89 -6.51 26.71 C-9.22 35.41 -9.22 35.41 -10.36 38.97 C-10.94 40.8 -11.47 42.65 -11.99 44.5 C-12.32 45.33 -12.66 46.15 -13 47 C-15.98 47.99 -17.21 48.03 -20.24 47.7 C-21.57 47.56 -21.57 47.56 -22.92 47.43 C-23.9 47.33 -24.87 47.23 -25.88 47.12 C-37.24 46.05 -48.59 45.65 -60 45.38 C-60.84 45.35 -61.69 45.33 -62.55 45.31 C-67.37 45.2 -72.18 45.1 -77 45 C-78.45 40.35 -77.35 36.77 -75.91 32.29 C-75.69 31.57 -75.46 30.84 -75.23 30.09 C-74.52 27.79 -73.79 25.49 -73.06 23.19 C-72.58 21.62 -72.09 20.05 -71.6 18.49 C-70.41 14.65 -69.21 10.83 -68 7 C-67.34 7.33 -66.68 7.66 -66 8 C-64.26 7.93 -62.52 7.78 -60.79 7.59 C-59.7 7.48 -58.61 7.37 -57.49 7.25 C-56.31 7.12 -55.13 6.99 -53.91 6.86 C-52.69 6.73 -51.47 6.6 -50.22 6.46 C-47.64 6.18 -45.05 5.9 -42.47 5.62 C-38.55 5.19 -34.62 4.77 -30.69 4.36 C-28.18 4.09 -25.67 3.82 -23.16 3.54 C-21.99 3.42 -20.82 3.29 -19.62 3.17 C-12.99 2.43 -6.51 1.45 0 0 Z " fill="#F9DCBC" transform="translate(488,73)"/>
<path d="M0 0 C0.87 0.06 1.73 0.13 2.63 0.19 C5.14 0.38 7.64 0.57 10.15 0.77 C10.9 0.83 11.65 0.88 12.42 0.94 C17.06 1.33 21.19 2.21 25.62 3.62 C22.87 6.38 20.24 6.11 16.54 6.34 C15.79 6.39 15.05 6.45 14.28 6.5 C11.75 6.68 9.22 6.84 6.69 7.01 C4.86 7.13 3.03 7.26 1.21 7.39 C-3.89 7.74 -8.99 8.07 -14.08 8.41 C-17.43 8.63 -20.77 8.85 -24.12 9.07 C-36.36 9.88 -48.61 10.69 -60.85 11.49 C-62.13 11.57 -63.41 11.66 -64.72 11.74 C-71.17 12.16 -77.61 12.58 -84.06 12.99 C-117.83 15.17 -151.54 17.72 -185.24 20.8 C-195.11 21.7 -204.99 22.54 -214.88 23.38 C-216.32 23.5 -217.76 23.62 -219.2 23.74 C-225.93 24.31 -232.66 24.79 -239.4 25.2 C-240.09 25.24 -240.79 25.28 -241.5 25.33 C-247.46 25.67 -253.41 25.73 -259.38 25.62 C-255.11 22.78 -250.74 22.26 -245.75 21.28 C-244.65 21.06 -243.55 20.84 -242.42 20.62 C-228.54 17.97 -214.54 16.22 -200.54 14.47 C-196.76 13.99 -192.98 13.5 -189.2 13.02 C-180.26 11.87 -171.32 10.75 -162.38 9.62 C-161.71 9.54 -161.04 9.46 -160.36 9.37 C-138.77 6.66 -138.77 6.66 -128.38 5.39 C-126.99 5.22 -126.99 5.22 -125.58 5.04 C-123.88 4.84 -122.19 4.63 -120.5 4.42 C-117.52 4.06 -114.56 3.66 -111.62 3.07 C-109.36 2.62 -107.24 2.45 -104.93 2.38 C-104.11 2.35 -103.28 2.32 -102.44 2.28 C-101.14 2.24 -101.14 2.24 -99.81 2.19 C-94.24 1.96 -88.85 1.68 -83.38 0.56 C-77.24 -0.62 -71.22 -0.48 -65 -0.41 C-59.77 -0.35 -54.65 -0.49 -49.44 -0.88 C-32.86 -1.99 -16.55 -1.24 0 0 Z " fill="#FAFCFC" transform="translate(807.375,235.375)"/>
<path d="M0 0 C2 1.5 2 1.5 3 4 C3.98 13.82 0.02 21.43 -6 29 C-13.17 37.05 -20.7 43.46 -30 49 C-30.6 49.36 -31.19 49.71 -31.81 50.08 C-46.85 59 -46.85 59 -52 59 C-52.33 59.66 -52.66 60.32 -53 61 C-54.06 57.8 -53.97 56.12 -52.7 53.02 C-52.39 52.25 -52.07 51.49 -51.75 50.71 C-51.4 49.9 -51.05 49.08 -50.69 48.25 C-50.33 47.41 -49.96 46.57 -49.59 45.7 C-41.89 28.36 -29.46 8 -10.94 0.81 C-6.94 -0.29 -4.15 -0.41 0 0 Z " fill="#F9DCBC" transform="translate(748,131)"/>
<path d="M0 0 C2.59 2.28 2.94 4.01 3.16 7.39 C2.72 20.06 -4.62 28.58 -13.45 36.86 C-21.39 44.02 -29.97 49.72 -39.5 54.56 C-40.16 54.9 -40.82 55.23 -41.5 55.58 C-45.32 57.43 -48.78 58.52 -53 59 C-54 57 -54 57 -53 53.91 C-52.49 52.62 -51.97 51.34 -51.44 50.06 C-51.02 49.05 -51.02 49.05 -50.6 48.02 C-42.78 29.32 -29.85 9.29 -10.88 0.56 C-6.97 -0.2 -3.99 -0.46 0 0 Z " fill="#F9DCBC" transform="translate(654,131)"/>
<path d="M0 0 C1 1 1 1 1.25 4.93 C1.18 10.35 -0.25 14.98 -1.99 20.07 C-2.45 21.47 -2.45 21.47 -2.92 22.88 C-3.89 25.82 -4.88 28.76 -5.88 31.69 C-6.53 33.67 -7.19 35.65 -7.85 37.63 C-9.31 42.04 -10.79 46.45 -12.28 50.86 C-13.19 53.57 -14.1 56.28 -15 59 C-22.41 60.28 -29.47 61.26 -37 61 C-37 60.34 -37 59.68 -37 59 C-37.66 59 -38.32 59 -39 59 C-38.13 38.49 -31.93 20.32 -18 5 C-14.96 2.3 -12.29 0.43 -8.44 -0.88 C-7.69 -1.14 -6.95 -1.41 -6.18 -1.68 C-3.46 -2.08 -2.29 -1.46 0 0 Z " fill="#FAFCFC" transform="translate(418,25)"/>
<path d="M0 0 C3.04 2.5 3.68 4.74 4.54 8.52 C4.79 9.63 5.04 10.73 5.3 11.87 C5.55 13.03 5.8 14.18 6.06 15.38 C6.32 16.49 6.57 17.61 6.84 18.76 C9.19 29.23 11.31 39.67 11.19 50.44 C11.18 51.74 11.17 53.03 11.17 54.37 C11.02 57.67 10.63 60.76 10 64 C-3.89 62.9 -15.07 51.64 -24 42 C-26 39 -26 39 -25.87 37.12 C-24.71 34.31 -23.05 32.42 -21.06 30.12 C-13.15 20.69 -6.07 10.72 0 0 Z " fill="#F9DCBC" transform="translate(937,146)"/>
<path d="M0 0 C4.82 4.26 6.86 9.65 7.38 15.94 C6.43 30.85 -1.5 42.47 -12.46 52.16 C-26.07 63.03 -43.44 70.48 -60.88 71.88 C-60.52 71.26 -60.17 70.64 -59.81 70 C-59.5 69.3 -59.19 68.6 -58.88 67.88 C-59.21 67.22 -59.53 66.56 -59.88 65.88 C-59.23 65.6 -58.59 65.32 -57.93 65.03 C-38.93 56.6 -17.67 45.1 -7.93 25.69 C-6 20.55 -4.84 14.91 -6.65 9.61 C-7.89 7.44 -7.89 7.44 -11.5 7.12 C-13.17 7 -13.17 7 -14.88 6.88 C-14.54 5.88 -14.22 4.9 -13.88 3.88 C-10.31 2.69 -10.31 2.69 -6.88 1.88 C-10.17 1.55 -13.48 1.22 -16.88 0.88 C-14.15 -4.57 -4.58 -1.79 0 0 Z " fill="#202021" transform="translate(661.875,124.125)"/>
<path d="M0 0 C7.19 0.24 7.19 0.24 10.88 3.69 C15.4 10.75 15.92 16.91 14.45 25.01 C10.7 39.69 -0.15 51.3 -12.87 59.15 C-17.15 61.65 -21.53 63.86 -26 66 C-26.72 66.37 -27.43 66.74 -28.17 67.12 C-34.77 70.15 -42.85 69.97 -50 70 C-50.66 69.67 -51.32 69.34 -52 69 C-52 68.34 -52 67.68 -52 67 C-51.17 66.68 -50.35 66.37 -49.5 66.04 C-30.25 58.26 -8.97 45.3 0.27 25.86 C2.42 20.36 2.91 14.67 1 9.06 C0.5 8.04 0.5 8.04 0 7 C0 6.67 0 6.34 0 6 C-2.31 5.34 -4.62 4.68 -7 4 C-7 3.34 -7 2.68 -7 2 C-3.53 1.5 -3.53 1.5 0 1 C0 0.67 0 0.34 0 0 Z " fill="#222222" transform="translate(748,123)"/>
<path d="M0 0 C0.52 0.25 1.03 0.5 1.56 0.75 C1.56 2.07 1.56 3.39 1.56 4.75 C0.57 5.2 -0.42 5.66 -1.44 6.12 C-11.18 11.78 -15.96 22.91 -20.44 32.75 C-20.96 33.89 -21.49 35.03 -22.03 36.2 C-26.13 46.55 -26.95 57.73 -26.44 68.75 C-32.11 68 -36.06 66.45 -40.44 62.75 C-43.72 56.87 -43.18 49.81 -41.63 43.45 C-36.09 26.26 -24.5 13.4 -9.44 3.75 C-8.42 3.08 -8.42 3.08 -7.39 2.39 C-3.06 -0.31 -3.06 -0.31 0 0 Z " fill="#222222" transform="translate(406.4375,21.25)"/>
<path d="M0 0 C0.66 0.33 1.32 0.66 2 1 C2.54 3.53 2.98 6.01 3.38 8.56 C4.87 18.83 4.87 18.83 11.19 26.55 C13.42 27.82 15.66 28.95 18 30 C18.66 30.33 19.32 30.66 20 31 C20 31.99 20 32.98 20 34 C14.67 34.29 9.34 34.58 4.01 34.85 C2.21 34.95 0.4 35.05 -1.4 35.15 C-14.28 35.85 -27.1 36.12 -40 36 C-40 35.34 -40 34.68 -40 34 C-38.82 33.42 -38.82 33.42 -37.61 32.82 C-22.36 24.98 -9.05 14.81 0 0 Z " fill="#F9DCBC" transform="translate(770,200)"/>
<path d="M0 0 C1.54 1.64 1.54 1.64 3.19 3.69 C10.9 12.7 20.7 17.64 32 21 C32 21.66 32 22.32 32 23 C32.66 23.33 33.32 23.66 34 24 C30.72 29.42 27.24 33.92 21 36 C12.95 36.87 7.38 35.47 1.05 30.46 C-4.56 25.32 -6.68 20.81 -7.31 13.26 C-7.72 2.78 -7.72 2.78 -5.16 -0.01 C-3 -1 -3 -1 0 0 Z " fill="#F9DCBC" transform="translate(911,192)"/>
<path d="M0 0 C6.42 -0.45 9.79 0.12 15 4 C17.98 8.33 18.64 11.8 18 17 C16.5 21.33 14.72 23.55 10.81 26 C4.72 27.6 -0.47 27.04 -6 24 C-6 23.34 -6 22.68 -6 22 C-6.64 21.77 -7.29 21.53 -7.95 21.29 C-10 20 -10 20 -10.61 17.84 C-10.66 17.02 -10.7 16.21 -10.75 15.38 C-10.81 14.56 -10.86 13.74 -10.92 12.9 C-10.95 12.27 -10.97 11.65 -11 11 C-10.34 11 -9.68 11 -9 11 C-8.92 10.26 -8.84 9.51 -8.75 8.75 C-7.84 5.41 -6.72 4.1 -4 2 C-2.68 2 -1.36 2 0 2 C0 1.34 0 0.68 0 0 Z " fill="#FAFCFB" transform="translate(687,328)"/>
<path d="M0 0 C0.68 -0 1.36 -0.01 2.06 -0.01 C4 0.12 4 0.12 7 1.12 C9.53 4.59 9.43 7.97 9 12.12 C6.4 17.54 2.55 20.96 -3 23.12 C-8.38 24 -12.64 23.68 -17.69 21.62 C-20 19.12 -20 19.12 -20.75 15.31 C-20.41 11.09 -18.68 8.6 -15.79 5.6 C-11.39 1.98 -5.68 -0.02 0 0 Z " fill="#202021" transform="translate(578,74.875)"/>
<path d="M0 0 C13.97 -0.86 13.97 -0.86 17.81 2.38 C21.19 6.42 21.36 8.73 21 14 C19.62 16.44 19.62 16.44 18 18 C17.34 18 16.68 18 16 18 C16.5 19.09 16.99 20.19 17.5 21.31 C19 25 19 25 19 28 C18.42 27.13 18.42 27.13 17.82 26.25 C14.43 21.61 14.43 21.61 9.31 19.47 C6.83 19.5 4.45 19.64 2 20 C2 22.64 2 25.28 2 28 C-0.3 24.55 -0.24 23.29 -0.2 19.24 C-0.19 18.12 -0.18 17 -0.18 15.85 C-0.16 14.68 -0.14 13.52 -0.12 12.31 C-0.12 11.13 -0.11 9.95 -0.1 8.74 C-0.07 5.83 -0.04 2.91 0 0 Z " fill="#FAFCFB" transform="translate(636,327)"/>
<path d="M0 0 C0.66 0 1.32 0 2 0 C3.06 2.71 3.05 3.86 2.1 6.66 C-4.52 19.94 -13.08 28.67 -27 34 C-27.33 33.34 -27.66 32.68 -28 32 C-25.21 29.04 -22.42 26.51 -19.12 24.12 C-10.09 17.39 -5.24 9.82 0 0 Z " fill="#262423" transform="translate(999,179)"/>
<path d="M0 0 C0.66 0 1.32 0 2 0 C0.51 8.67 -1.98 16.93 -4.58 25.31 C-5.31 27.66 -6.03 30.02 -6.75 32.37 C-9.36 40.87 -12.08 49.31 -14.92 57.73 C-16.27 61.82 -17.51 65.93 -18.69 70.06 C-20.03 74.74 -21.43 79.39 -23 84 C-23.33 84 -23.66 84 -24 84 C-23.45 77.35 -22.15 71.43 -20.16 65.08 C-19.87 64.15 -19.59 63.22 -19.29 62.26 C-18.37 59.25 -17.43 56.25 -16.5 53.25 C-15.86 51.18 -15.23 49.12 -14.59 47.05 C-13.02 41.97 -11.45 36.88 -9.87 31.8 C-8.6 27.71 -7.34 23.62 -6.07 19.52 C-4.06 13.01 -2.03 6.5 0 0 Z " fill="#F4D9BC" transform="translate(398,151)"/>
<path d="M0 0 C13.97 -0.86 13.97 -0.86 17.81 2.38 C21.19 6.42 21.36 8.73 21 14 C19.62 16.44 19.62 16.44 18 18 C17.34 18 16.68 18 16 18 C16.5 19.09 16.99 20.19 17.5 21.31 C19 25 19 25 19 28 C18.42 27.13 18.42 27.13 17.82 26.25 C14.43 21.61 14.43 21.61 9.31 19.47 C6.83 19.5 4.45 19.64 2 20 C2 22.64 2 25.28 2 28 C-0.3 24.55 -0.24 23.29 -0.2 19.24 C-0.19 18.12 -0.18 17 -0.18 15.85 C-0.16 14.68 -0.14 13.52 -0.12 12.31 C-0.12 11.13 -0.11 9.95 -0.1 8.74 C-0.07 5.83 -0.04 2.91 0 0 Z M2 2 C1.97 4.31 1.95 6.62 1.94 8.94 C1.93 10.23 1.91 11.51 1.9 12.84 C1.63 15.86 1.63 15.86 3 17 C4.93 17.32 6.87 17.55 8.81 17.75 C9.87 17.87 10.93 17.99 12.02 18.11 C15.45 17.98 16.64 17.44 19 15 C19.81 11.9 19.81 11.9 20 9 C19.34 9 18.68 9 18 9 C17.9 8.4 17.79 7.8 17.69 7.19 C16.86 4.56 16.21 3.65 14 2 C11.03 1.64 11.03 1.64 7.81 1.81 C6.18 1.85 6.18 1.85 4.52 1.89 C3.69 1.93 2.86 1.96 2 2 Z " fill="#4E4340" transform="translate(636,327)"/>
<path d="M0 0 C2.44 -0.05 4.87 -0.09 7.31 -0.12 C8 -0.14 8.69 -0.16 9.4 -0.18 C13.17 -0.21 14.78 -0.14 18 2 C13.05 2 8.1 2 3 2 C2.98 3.46 2.96 4.93 2.94 6.44 C2.93 7.26 2.91 8.08 2.9 8.93 C2.77 10.99 2.77 10.99 4 12 C6.18 12.4 8.37 12.74 10.56 13.06 C11.76 13.24 12.96 13.42 14.19 13.6 C15.12 13.73 16.05 13.86 17 14 C17 14.33 17 14.66 17 15 C12.38 15 7.76 15 3 15 C2.98 16.44 2.96 17.89 2.94 19.38 C2.93 20.19 2.91 21 2.9 21.84 C2.86 24.05 2.86 24.05 4 26 C6.71 26.31 9.34 26.51 12.06 26.62 C12.82 26.66 13.58 26.7 14.36 26.74 C16.24 26.84 18.12 26.92 20 27 C20 27.33 20 27.66 20 28 C17.04 28.05 14.08 28.09 11.12 28.12 C9.86 28.15 9.86 28.15 8.57 28.18 C7.37 28.19 7.37 28.19 6.13 28.2 C5.39 28.21 4.65 28.22 3.88 28.23 C2 28 2 28 0 26 C-0.23 23.39 -0.23 23.39 -0.2 20.12 C-0.19 18.95 -0.18 17.78 -0.18 16.58 C-0.16 15.36 -0.14 14.14 -0.12 12.88 C-0.12 11.64 -0.11 10.41 -0.1 9.14 C-0.07 6.1 -0.04 3.05 0 0 Z " fill="#333E68" transform="translate(760,327)"/>
<path d="M0 0 C0 0.66 0 1.32 0 2 C0.6 2.04 1.2 2.08 1.81 2.12 C4 3 4 3 5.81 5.69 C7.15 9.42 7.09 11.23 6 15 C4 18 4 18 1 19 C-1.23 19.22 -3.46 19.41 -5.69 19.56 C-7.46 19.69 -7.46 19.69 -9.26 19.82 C-10.17 19.88 -11.07 19.94 -12 20 C-12 22.64 -12 25.28 -12 28 C-14.27 24.6 -14.24 23.44 -14.2 19.46 C-14.19 18.38 -14.18 17.31 -14.18 16.21 C-14.15 14.53 -14.15 14.53 -14.12 12.81 C-14.12 11.68 -14.11 10.55 -14.1 9.38 C-14.07 6.59 -14.04 3.79 -14 1 C-12.42 0.83 -10.83 0.66 -9.25 0.5 C-8.37 0.41 -7.49 0.31 -6.58 0.22 C-4 0 -4 0 0 0 Z M-12 3 C-12.07 5.19 -12.08 7.38 -12.06 9.56 C-12.05 10.76 -12.04 11.96 -12.04 13.19 C-12.02 14.12 -12.01 15.05 -12 16 C-7.43 17.61 -3.88 18.54 1 18 C3.65 16.6 3.65 16.6 5 14 C5.08 9.79 4.38 7.58 2.06 4.06 C-1.27 1.82 -8.61 -0.39 -12 3 Z " fill="#30395C" transform="translate(608,327)"/>
<path d="M0 0 C4.04 1.35 5.17 3.96 7.25 7.44 C7.63 8.04 8 8.64 8.39 9.25 C9.33 10.79 10.17 12.39 11 14 C10.67 14.66 10.34 15.32 10 16 C9.67 15.01 9.34 14.02 9 13 C8.01 12.67 7.02 12.34 6 12 C5.31 9.94 5.31 9.94 5 8 C4.01 8.5 4.01 8.5 3 9 C3 14.61 3 20.22 3 26 C2.34 26.33 1.68 26.66 1 27 C-0.04 23.88 -0.11 21.73 -0.1 18.46 C-0.09 17.38 -0.09 16.31 -0.09 15.21 C-0.08 14.09 -0.07 12.97 -0.06 11.81 C-0.06 10.68 -0.05 9.55 -0.05 8.38 C-0.04 5.59 -0.02 2.79 0 0 Z " fill="#202E6B" transform="translate(478,328)"/>
<path d="M0 0 C1.82 1.85 1.82 1.85 3.69 4.06 C4.31 4.8 4.93 5.53 5.57 6.29 C6.04 6.85 6.52 7.42 7 8 C6.67 8.66 6.34 9.32 6 10 C4.57 8.67 3.14 7.33 1.7 6 C0 4.76 0 4.76 -2.2 5.35 C-3.09 5.67 -3.09 5.67 -4 6 C-4.44 12.67 -4.4 17.59 -0.78 23.34 C0 25 0 25 -1 28 C-6.16 22.16 -7.3 17.03 -7.38 9.31 C-7.4 8.01 -7.43 6.71 -7.46 5.36 C-7 2 -7 2 -5.16 -0.02 C-3 -1 -3 -1 0 0 Z " fill="#F1D7BC" transform="translate(911,192)"/>
<path d="M0 0 C0.66 0 1.32 0 2 0 C1.33 5.92 0.34 11.7 -0.85 17.53 C-1.11 18.85 -1.11 18.85 -1.38 20.19 C-1.94 22.96 -2.5 25.73 -3.06 28.5 C-3.44 30.39 -3.82 32.28 -4.21 34.17 C-5.13 38.78 -6.07 43.39 -7 48 C-7.33 48 -7.66 48 -8 48 C-8.67 38.14 -6.64 29.06 -4.56 19.5 C-4.23 17.94 -3.9 16.38 -3.58 14.81 C-1.22 3.65 -1.22 3.65 0 0 Z " fill="#F2D7BA" transform="translate(482,146)"/>
<path d="M0 0 C1.31 3.92 0.3 5.45 -1.06 9.31 C-3.78 18.29 -2.34 26.02 0 35 C-3.59 33.49 -4.82 32.37 -6.5 28.81 C-8.19 20.39 -4.8 9.89 -2 2 C-1.34 2 -0.68 2 0 2 C0 1.34 0 0.68 0 0 Z " fill="#F0D6BC" transform="translate(851,188)"/>
<path d="M0 0 C0.99 0 1.98 0 3 0 C4.11 5.33 4.12 10.46 4.06 15.88 C4.06 16.75 4.05 17.63 4.05 18.54 C4.04 20.69 4.02 22.85 4 25 C3.34 25.33 2.68 25.66 2 26 C0.84 22.53 0.67 19.46 0.44 15.81 C0.35 14.54 0.27 13.27 0.18 11.96 C0.12 10.98 0.06 10.01 0 9 C-1.65 10.32 -3.3 11.64 -5 13 C-3.58 8.53 -1.89 4.29 0 0 Z " fill="#2C3057" transform="translate(503,329)"/>
<path d="M0 0 C3.1 -0.06 6.21 -0.09 9.31 -0.12 C10.19 -0.14 11.07 -0.16 11.98 -0.18 C12.83 -0.18 13.68 -0.19 14.55 -0.2 C15.72 -0.21 15.72 -0.21 16.92 -0.23 C19 0 19 0 22 2 C19.03 2 16.06 2 13 2 C12.67 10.58 12.34 19.16 12 28 C9.84 24.76 9.72 23.66 9.59 19.89 C9.55 18.91 9.51 17.93 9.47 16.92 C9.44 15.89 9.41 14.87 9.38 13.81 C9.34 12.78 9.3 11.74 9.26 10.67 C9.16 8.12 9.08 5.56 9 3 C7.7 2.88 6.4 2.75 5.06 2.62 C2.85 2.41 2.85 2.41 1 2 C0.67 1.34 0.34 0.68 0 0 Z " fill="#0D2B8A" transform="translate(838,327)"/>
<path d="M0 0 C0.66 0 1.32 0 2 0 C1.86 1.17 1.71 2.34 1.56 3.54 C1.37 5.09 1.19 6.64 1 8.19 C0.9 8.96 0.81 9.73 0.71 10.52 C0.25 14.37 -0.12 18.11 0 22 C0.33 22 0.66 22 1 22 C0.94 23.22 0.88 24.43 0.81 25.69 C0.78 29.64 1.82 31.68 4 35 C3.67 35.99 3.34 36.98 3 38 C-0.87 35.04 -1.85 32.22 -2.68 27.61 C-3.86 17.92 -2.54 9.38 0 0 Z " fill="#F4D8BC" transform="translate(791,182)"/>
<path d="M0 0 C1.66 3.31 0.58 6.77 0.16 10.37 C-0.17 13.11 -0.17 13.11 1 16 C0.67 16.33 0.34 16.66 0 17 C-0.07 19.86 -0.09 22.7 -0.06 25.56 C-0.06 26.37 -0.05 27.18 -0.05 28.01 C-0.04 30 -0.02 32 0 34 C-0.99 34.5 -0.99 34.5 -2 35 C-3.73 31.28 -4.2 28.57 -3.98 24.48 C-3.9 22.95 -3.9 22.95 -3.82 21.38 C-3.76 20.33 -3.69 19.27 -3.62 18.19 C-3.57 17.11 -3.51 16.04 -3.45 14.93 C-3.31 12.29 -3.16 9.64 -3 7 C-2.34 7 -1.68 7 -1 7 C-1.02 6.03 -1.04 5.06 -1.06 4.06 C-1 1 -1 1 0 0 Z " fill="#EDD4B9" transform="translate(471,213)"/>
<path d="M0 0 C0.33 0.66 0.66 1.32 1 2 C1.77 1.99 2.54 1.98 3.34 1.97 C6.83 1.93 10.32 1.9 13.81 1.88 C15.03 1.86 16.24 1.84 17.49 1.82 C18.66 1.82 19.82 1.81 21.02 1.8 C22.63 1.79 22.63 1.79 24.27 1.77 C27 2 27 2 30 4 C28.2 5.8 25.49 5.13 23.07 5.13 C21.26 5.13 21.26 5.13 19.41 5.14 C18.14 5.13 16.87 5.13 15.56 5.12 C14.3 5.13 13.03 5.13 11.72 5.14 C10.52 5.14 9.31 5.13 8.07 5.13 C6.95 5.13 5.84 5.13 4.69 5.13 C2 5 2 5 0 4 C0 2.68 0 1.36 0 0 Z " fill="#06060E" transform="translate(410,116)"/>
<path d="M0 0 C0.99 0 1.98 0 3 0 C4.61 2.12 4.61 2.12 6.19 4.88 C6.72 5.78 7.25 6.68 7.79 7.62 C9 10 9 10 9 12 C11.79 13.11 11.79 13.11 14 13 C15.59 10.75 15.59 10.75 17.12 8 C17.66 7.07 18.2 6.14 18.76 5.19 C19.17 4.47 19.58 3.74 20 3 C20.33 3.66 20.66 4.32 21 5 C19.82 7.35 19.82 7.35 18.12 10.06 C17.57 10.96 17.02 11.86 16.45 12.79 C15 15 15 15 14 16 C13.77 17.68 13.59 19.37 13.44 21.06 C13.35 21.98 13.27 22.9 13.18 23.85 C13.12 24.56 13.06 25.27 13 26 C12.34 26 11.68 26 11 26 C11.33 23.36 11.66 20.72 12 18 C11.01 17.67 10.02 17.34 9 17 C7.5 14.71 7.5 14.71 6 11.81 C5.48 10.82 4.96 9.83 4.43 8.81 C3.96 7.88 3.49 6.96 3 6 C2.65 5.32 2.3 4.64 1.95 3.94 C1.29 2.63 0.64 1.32 0 0 Z " fill="#23294E" transform="translate(526,328)"/>
<path d="M0 0 C1.79 -0.05 3.58 -0.09 5.38 -0.12 C6.37 -0.15 7.37 -0.17 8.4 -0.2 C11 0 11 0 13 2 C13.17 4.31 13.17 4.31 13.05 7.16 C13 8.18 12.96 9.2 12.92 10.25 C12.83 11.86 12.83 11.86 12.75 13.5 C12.71 14.57 12.67 15.64 12.63 16.75 C12.26 24.74 12.26 24.74 10 27 C9.01 26.67 8.02 26.34 7 26 C7.99 25.34 8.98 24.68 10 24 C10.32 21.77 10.32 21.77 10.07 19.21 C10.02 18.27 9.96 17.33 9.91 16.36 C9.84 15.37 9.76 14.39 9.69 13.38 C9.63 12.38 9.57 11.39 9.5 10.37 C9.35 7.91 9.18 5.46 9 3 C7.7 2.88 6.4 2.75 5.06 2.62 C2.85 2.41 2.85 2.41 1 2 C0.67 1.34 0.34 0.68 0 0 Z " fill="#172553" transform="translate(724,327)"/>
<path d="M0 0 C1.27 3.8 0.49 5.64 -0.5 9.5 C-1.93 15.79 -2.63 21.67 -1 28 C-0.34 28.33 0.32 28.66 1 29 C1.62 31.56 1.62 31.56 2 34 C-1.16 32.63 -1.99 32.01 -4 29 C-6.62 19.82 -4.13 11.02 -2 2 C-1.34 2 -0.68 2 0 2 C0 1.34 0 0.68 0 0 Z " fill="#F0D6BC" transform="translate(535,183)"/>
<path d="M0 0 C6.42 -0.45 9.79 0.12 15 4 C17.98 8.33 18.64 11.8 18 17 C16.46 21.44 14.74 23.58 10.62 25.94 C7.18 26.95 4.56 27.26 1 27 C1 26.67 1 26.34 1 26 C6.94 24.51 6.94 24.51 13 23 C15.72 16.36 14.47 10.89 13 4 C8.67 2.42 4.57 1.55 0 1 C0 0.67 0 0.34 0 0 Z " fill="#1B244E" transform="translate(687,328)"/>
<path d="M0 0 C2.27 2.27 2.62 3.56 3.47 6.61 C3.73 7.53 3.99 8.45 4.26 9.4 C4.52 10.36 4.79 11.32 5.06 12.31 C5.33 13.26 5.6 14.21 5.88 15.19 C7.88 22.34 9.13 28.57 9 36 C8.34 36 7.68 36 7 36 C6.84 35.07 6.68 34.13 6.52 33.17 C4.96 24.32 2.97 15.69 0.54 7.03 C-0.01 5.03 -0.51 3.02 -1 1 C-0.67 0.67 -0.34 0.34 0 0 Z " fill="#F3D8BC" transform="translate(958,154)"/>
<path d="M0 0 C0.33 0.66 0.66 1.32 1 2 C1.66 2.33 2.32 2.66 3 3 C3 3.99 3 4.98 3 6 C2.54 6.43 2.09 6.87 1.61 7.31 C-0.62 9.65 -1.02 11.86 -1.82 14.98 C-2.13 16.14 -2.44 17.31 -2.75 18.51 C-3.06 19.72 -3.37 20.94 -3.69 22.19 C-4.01 23.41 -4.33 24.64 -4.66 25.9 C-5.45 28.93 -6.23 31.97 -7 35 C-7.33 35 -7.66 35 -8 35 C-8.52 27.42 -6.61 20.82 -4.56 13.56 C-4.24 12.37 -3.91 11.17 -3.58 9.94 C-1.15 1.15 -1.15 1.15 0 0 Z " fill="#F3D8BC" transform="translate(502,70)"/>
<path d="M0 0 C2 2 2 2 2.31 5.38 C1.99 9.08 1.64 10.46 -1 13 C-1.66 13 -2.32 13 -3 13 C-2.5 14.09 -2.01 15.19 -1.5 16.31 C0 20 0 20 0 23 C-0.39 22.43 -0.78 21.87 -1.18 21.29 C-4.64 16.68 -4.64 16.68 -9.69 14.25 C-12.15 14.03 -14.53 13.92 -17 14 C-16.67 13.01 -16.34 12.02 -16 11 C-15.17 11.1 -14.34 11.19 -13.48 11.29 C-12.39 11.4 -11.31 11.51 -10.19 11.62 C-8.57 11.8 -8.57 11.8 -6.92 11.98 C-3.8 12.27 -3.8 12.27 -1 10 C-1 9.01 -1 8.02 -1 7 C-0.34 7 0.32 7 1 7 C1 6.01 1 5.02 1 4 C0.34 4 -0.32 4 -1 4 C-0.67 2.68 -0.34 1.36 0 0 Z " fill="#1F2443" transform="translate(655,332)"/>
<path d="M0 0 C0.6 0.21 1.2 0.41 1.81 0.62 C-8.11 8.84 -19.99 9.34 -32.19 8.62 C-32.19 8.29 -32.19 7.97 -32.19 7.62 C-28.56 7.62 -24.93 7.62 -21.19 7.62 C-21.19 6.97 -21.19 6.31 -21.19 5.62 C-20.07 5.36 -18.95 5.09 -17.79 4.82 C-16.32 4.46 -14.85 4.11 -13.38 3.75 C-12.64 3.58 -11.9 3.4 -11.14 3.22 C-7.46 2.32 -3.46 -0.59 0 0 Z " fill="#07070E" transform="translate(736.1875,226.375)"/>
<path d="M0 0 C1.27 2.54 0.72 3.32 0 6 C-0.08 7.37 -0.11 8.74 -0.1 10.11 C-0.09 10.86 -0.09 11.62 -0.09 12.39 C-0.08 13.17 -0.07 13.95 -0.06 14.75 C-0.06 15.54 -0.05 16.34 -0.05 17.15 C-0.04 19.1 -0.02 21.05 0 23 C-2 21 -2 21 -2.88 18.12 C-4.07 14.8 -5.36 13.29 -8 11 C-4.25 5.12 -4.25 5.12 -2 4 C-2 3.01 -2 2.02 -2 1 C-1.34 0.67 -0.68 0.34 0 0 Z " fill="#E8D0B8" transform="translate(830,199)"/>
<path d="M0 0 C5.61 0 11.22 0 17 0 C17 0.33 17 0.66 17 1 C12.38 1 7.76 1 3 1 C2.98 2.44 2.96 3.89 2.94 5.38 C2.93 6.19 2.91 7 2.9 7.84 C2.86 10.05 2.86 10.05 4 12 C6.71 12.31 9.34 12.51 12.06 12.62 C13.2 12.68 13.2 12.68 14.36 12.74 C16.24 12.84 18.12 12.92 20 13 C20 13.33 20 13.66 20 14 C17.04 14.05 14.08 14.09 11.12 14.12 C9.86 14.15 9.86 14.15 8.57 14.18 C7.77 14.18 6.96 14.19 6.13 14.2 C5.39 14.21 4.65 14.22 3.88 14.23 C2 14 2 14 0 12 C-0.28 7.99 -0.09 4.03 0 0 Z " fill="#0B1742" transform="translate(760,341)"/>
<path d="M0 0 C0.9 0.31 0.9 0.31 1.81 0.62 C-6.1 6.96 -16.21 9.3 -26.19 8.62 C-26.19 8.29 -26.19 7.97 -26.19 7.62 C-25.26 7.5 -24.33 7.38 -23.38 7.25 C-20.05 6.81 -20.05 6.81 -17.19 4.62 C-14.14 3.78 -11.08 3.1 -8 2.41 C-4.88 1.54 -3.21 -0.55 0 0 Z " fill="#06060E" transform="translate(642.1875,226.375)"/>
<path d="M0 0 C0.66 0 1.32 0 2 0 C2 7.92 2 15.84 2 24 C1.34 24 0.68 24 0 24 C-1.03 19.77 -1.13 15.78 -1.12 11.44 C-1.13 10.14 -1.13 8.84 -1.13 7.5 C-1.03 4.76 -0.83 2.58 0 0 Z " fill="#EDD4B9" transform="translate(952,116)"/>
<path d="M0 0 C0.99 0 1.98 0 3 0 C3 1.65 3 3.3 3 5 C-0.26 6.81 -3.44 7.71 -7.06 8.56 C-10.1 9.29 -13.04 10.01 -16 11 C-18.74 11.07 -21.45 11.09 -24.19 11.06 C-24.94 11.06 -25.69 11.05 -26.46 11.05 C-28.31 11.04 -30.15 11.02 -32 11 C-32 10.67 -32 10.34 -32 10 C-30.62 9.98 -30.62 9.98 -29.21 9.96 C-18.74 9.56 -8.94 7.96 0 2 C0 1.34 0 0.68 0 0 Z " fill="#3E332F" transform="translate(737,225)"/>
<path d="M0 0 C0.33 0 0.66 0 1 0 C1.83 5.05 2.15 9.94 2.12 15.06 C2.13 15.74 2.13 16.43 2.14 17.13 C2.13 21.19 1.78 25.02 1 29 C-0.98 28.67 -2.96 28.34 -5 28 C-4.36 27.24 -3.72 26.47 -3.06 25.69 C1.63 18.63 0.14 8.12 0 0 Z " fill="#F0D6BC" transform="translate(946,181)"/>
<path d="M0 0 C0.99 0.33 1.98 0.66 3 1 C2.2 1.66 1.39 2.32 0.56 3 C-2.6 6.7 -3.15 9.22 -3 14 C-2.69 16.86 -2.69 16.86 -1 19 C1.29 20.31 3.49 21.12 6 22 C6 22.66 6 23.32 6 24 C1.18 23.59 -0.91 21.62 -4 18 C-4 17.34 -4 16.68 -4 16 C-4.66 16 -5.32 16 -6 16 C-6.58 10.59 -6.34 7.89 -3 3.5 C-2.02 2.32 -1.02 1.15 0 0 Z " fill="#26263C" transform="translate(804,330)"/>
<path d="M0 0 C0.66 0.33 1.32 0.66 2 1 C1.17 1.6 0.35 2.2 -0.5 2.81 C-3.26 5.53 -3.39 7.76 -3.44 11.56 C-3.35 15.19 -3.08 17.96 -1 21 C2.06 21.82 2.06 21.82 5 22 C5 22.66 5 23.32 5 24 C0.25 23.12 0.25 23.12 -2 22 C-2 21.34 -2 20.68 -2 20 C-2.64 19.77 -3.29 19.53 -3.95 19.29 C-6 18 -6 18 -6.61 15.84 C-6.66 15.02 -6.7 14.21 -6.75 13.38 C-6.81 12.56 -6.86 11.74 -6.92 10.9 C-6.95 10.27 -6.97 9.65 -7 9 C-6.34 9 -5.68 9 -5 9 C-4.88 7.89 -4.88 7.89 -4.75 6.75 C-3.86 3.49 -2.51 2.19 0 0 Z " fill="#1B2450" transform="translate(683,330)"/>
<path d="M0 0 C3.79 1.45 7.39 3.15 11 5 C11 5.99 11 6.98 11 8 C3.71 8.49 3.71 8.49 0.44 6.25 C-1 4 -1 4 -0.75 1.75 C-0.5 1.17 -0.25 0.59 0 0 Z " fill="#F0D6BC" transform="translate(779,226)"/>
<path d="M0 0 C0.33 0 0.66 0 1 0 C1.4 10.81 0.44 21.69 -3 32 C-3.33 32 -3.66 32 -4 32 C-3.49 21.15 -1.92 10.68 0 0 Z " fill="#F6DABC" transform="translate(473,188)"/>
<path d="M0 0 C2.79 -0.03 5.58 -0.05 8.38 -0.06 C9.57 -0.08 9.57 -0.08 10.78 -0.09 C16.77 -0.11 16.77 -0.11 19 1 C19 1.66 19 2.32 19 3 C16.21 3.03 13.42 3.05 10.62 3.06 C9.43 3.08 9.43 3.08 8.22 3.09 C2.23 3.11 2.23 3.11 0 2 C0 1.34 0 0.68 0 0 Z " fill="#06060E" transform="translate(489,120)"/>
<path d="M0 0 C0 0.66 0 1.32 0 2 C0.6 2.04 1.2 2.08 1.81 2.12 C4 3 4 3 5.81 5.69 C7.15 9.42 7.09 11.23 6 15 C5.01 16.49 5.01 16.49 4 18 C3.01 17.67 2.02 17.34 1 17 C1.52 16.65 2.03 16.3 2.56 15.94 C4.35 13.94 4.35 13.94 3.94 10.56 C2.9 6.62 2.16 5.47 -1 3 C-4.03 2.31 -4.03 2.31 -7.25 2.25 C-8.33 2.19 -9.41 2.14 -10.52 2.08 C-11.75 2.04 -11.75 2.04 -13 2 C-13 1.67 -13 1.34 -13 1 C-11.58 0.83 -10.17 0.66 -8.75 0.5 C-7.57 0.36 -7.57 0.36 -6.36 0.22 C-4 0 -4 0 0 0 Z " fill="#1D203E" transform="translate(608,327)"/>
<path d="M0 0 C0.66 0.33 1.32 0.66 2 1 C2.48 3.71 2.84 6.34 3.12 9.06 C3.21 9.82 3.3 10.58 3.39 11.36 C3.6 13.24 3.8 15.12 4 17 C1.86 14.86 1.57 13.87 1 11 C-0.65 10.67 -2.3 10.34 -4 10 C-4.33 9.01 -4.66 8.02 -5 7 C-3.12 4.44 -3.12 4.44 -1 2 C-0.67 1.34 -0.34 0.68 0 0 Z " fill="#ECD3BA" transform="translate(770,200)"/>
<path d="M0 0 C4.04 1.35 5.17 3.96 7.25 7.44 C7.63 8.04 8 8.64 8.39 9.25 C9.33 10.79 10.17 12.39 11 14 C10.67 14.66 10.34 15.32 10 16 C9.67 15.01 9.34 14.02 9 13 C8.01 12.67 7.02 12.34 6 12 C5.88 11.36 5.75 10.72 5.62 10.06 C5.42 9.38 5.21 8.7 5 8 C2.51 6.7 2.51 6.7 0 6 C0 4.02 0 2.04 0 0 Z " fill="#3D3545" transform="translate(478,328)"/>
<path d="M0 0 C0.99 0.33 1.98 0.66 3 1 C2.94 2.22 2.88 3.43 2.81 4.69 C2.78 8.64 3.82 10.68 6 14 C5.67 14.99 5.34 15.98 5 17 C1.28 13.87 0.36 11.59 -0.31 6.81 C-0.47 5.75 -0.63 4.68 -0.8 3.58 C-0.87 2.73 -0.93 1.88 -1 1 C-0.67 0.67 -0.34 0.34 0 0 Z " fill="#F0D6BC" transform="translate(789,203)"/>
<path d="M0 0 C2 1 2 1 2.89 3.62 C3.15 4.69 3.42 5.77 3.69 6.88 C3.96 7.94 4.23 9.01 4.51 10.12 C5 13 5 13 4 16 C3.41 14.36 3.41 14.36 2.81 12.69 C1.3 9.09 -0.4 7.65 -4 6 C-2.68 4.02 -1.36 2.04 0 0 Z " fill="#F0D6BC" transform="translate(577,205)"/>
<path d="M0 0 C1.23 2.45 1 3.9 0.88 6.62 C0.82 11.71 1.92 15.42 4 20 C4.39 20.99 4.78 21.98 5.19 23 C5.46 23.66 5.72 24.32 6 25 C3.06 23.99 2.06 23.1 0.38 20.43 C-1.28 16.3 -1.38 13.08 -1.25 8.69 C-1.24 7.96 -1.24 7.23 -1.23 6.48 C-1.15 1.15 -1.15 1.15 0 0 Z " fill="#F0D6BC" transform="translate(599,201)"/>
<path d="M0 0 C0.33 0 0.66 0 1 0 C1.66 4.29 2.32 8.58 3 13 C1.35 11.68 -0.3 10.36 -2 9 C-2.99 8.34 -3.98 7.68 -5 7 C-4.19 5.06 -4.19 5.06 -3 3 C-2.01 2.67 -1.02 2.34 0 2 C0 1.34 0 0.68 0 0 Z " fill="#EED4BB" transform="translate(891,206)"/>
<path d="M0 0 C3.25 2.36 3.82 5.26 4.77 8.96 C5.03 11.23 4.68 12.84 4 15 C3.67 13.02 3.34 11.04 3 9 C1.35 8.67 -0.3 8.34 -2 8 C-2.33 7.01 -2.66 6.02 -3 5 C-1.56 2.31 -1.56 2.31 0 0 Z " fill="#EED4BB" transform="translate(937,146)"/>
<path d="M0 0 C3.92 1.31 6.33 2.83 9 6 C9 6.66 9 7.32 9 8 C3.57 8.36 3.57 8.36 1.12 6.81 C-0.35 4.44 -0.22 2.74 0 0 Z " fill="#F0D6BC" transform="translate(901,230)"/>
<path d="M0 0 C4.72 0.92 4.72 0.92 6.83 1.54 C10.29 2.28 13.72 2.02 17.25 1.94 C19.95 2 22.37 2.39 25 3 C25 3.33 25 3.66 25 4 C17.2 5.08 9.16 6 1.88 2.5 C1.26 2 0.64 1.51 0 1 C0 0.67 0 0.34 0 0 Z " fill="#F0D6BC" transform="translate(700,227)"/>
<path d="M0 0 C0.66 0 1.32 0 2 0 C2 0.99 2 1.98 2 3 C2.78 3.29 3.57 3.58 4.38 3.88 C7 5 7 5 9 7 C4.57 9.09 4.57 9.09 1.69 8.62 C1.13 8.42 0.57 8.21 0 8 C0 5.36 0 2.72 0 0 Z " fill="#F0D6BC" transform="translate(965,201)"/>
<path d="M0 0 C0.66 0 1.32 0 2 0 C2.1 0.76 2.21 1.53 2.31 2.31 C3.04 5.17 3.77 6.16 6 8 C3.43 9.62 2.32 10.04 -0.75 9.62 C-1.86 9.32 -1.86 9.32 -3 9 C-2.01 6.03 -1.02 3.06 0 0 Z " fill="#F0D6BC" transform="translate(603,180)"/>
<path d="M0 0 C1.32 0 2.64 0 4 0 C3.39 6.68 1.22 12.7 -1 19 C-2.32 14.95 -1.47 12.22 -0.38 8.22 C0.04 5.79 -0.36 4.34 -1 2 C-0.67 1.34 -0.34 0.68 0 0 Z " fill="#F0D6BC" transform="translate(398,84)"/>
<path d="M0 0 C3.1 -0.06 6.21 -0.09 9.31 -0.12 C10.19 -0.14 11.07 -0.16 11.98 -0.18 C12.83 -0.18 13.68 -0.19 14.55 -0.2 C15.72 -0.21 15.72 -0.21 16.92 -0.23 C19 0 19 0 22 2 C15.03 2.86 7.91 3.64 1 2 C0.67 1.34 0.34 0.68 0 0 Z " fill="#35343C" transform="translate(838,327)"/>
<path d="M0 0 C2 2 2 2 2.2 4.6 C2.17 5.6 2.15 6.6 2.12 7.62 C2.11 8.63 2.09 9.63 2.07 10.66 C2.04 11.82 2.04 11.82 2 13 C1.01 13.5 1.01 13.5 0 14 C-1.99 9.89 -2.34 6.55 -2 2 C-1.34 1.34 -0.68 0.68 0 0 Z " fill="#F0D6BC" transform="translate(469,234)"/>
<path d="M0 0 C1.32 0.66 2.64 1.32 4 2 C2.95 4.86 2.3 5.84 -0.44 7.31 C-3 8 -3 8 -6 7 C-4.77 3.31 -3.06 2.28 0 0 Z " fill="#F0D6BC" transform="translate(956,226)"/>
<path d="M0 0 C0.33 3.96 0.66 7.92 1 12 C-0.32 11.01 -1.64 10.02 -3 9 C-3.99 8.34 -4.98 7.68 -6 7 C-2.86 0 -2.86 0 0 0 Z " fill="#F0D6BC" transform="translate(674,206)"/>
<path d="M0 0 C2.36 3.55 2.3 5.23 2.31 9.44 C2.34 11.14 2.34 11.14 2.36 12.87 C1.97 16.22 1.27 17.57 -1 20 C-1.03 17.04 -1.05 14.08 -1.06 11.12 C-1.07 10.28 -1.08 9.44 -1.09 8.57 C-1.09 7.77 -1.09 6.96 -1.1 6.13 C-1.1 5.39 -1.11 4.65 -1.11 3.88 C-1 2 -1 2 0 0 Z " fill="#F1D7BC" transform="translate(669,133)"/>
<path d="M0 0 C0.66 1.32 1.32 2.64 2 4 C1.67 4.33 1.34 4.66 1 5 C0.93 7.35 0.92 9.71 0.94 12.06 C0.95 13.35 0.96 14.64 0.96 15.97 C0.98 16.97 0.99 17.97 1 19 C0.34 19 -0.32 19 -1 19 C-2.07 15.54 -2.1 12.36 -2.06 8.75 C-2.05 7.13 -2.05 7.13 -2.04 5.48 C-2.02 4.66 -2.01 3.84 -2 3 C-1.34 3 -0.68 3 0 3 C0 2.01 0 1.02 0 0 Z " fill="#F3D8BC" transform="translate(693,198)"/>
<path d="M0 0 C1.28 3.85 0.58 6.11 -0.25 10.06 C-0.5 11.31 -0.76 12.56 -1.02 13.85 C-2 17 -2 17 -5 19 C-4.69 16.92 -4.38 14.83 -4.06 12.75 C-3.89 11.59 -3.71 10.43 -3.54 9.23 C-3.13 6.77 -2.66 4.41 -2 2 C-1.34 2 -0.68 2 0 2 C0 1.34 0 0.68 0 0 Z " fill="#F4D8BC" transform="translate(535,183)"/>
<path d="M0 0 C0.66 0 1.32 0 2 0 C1.35 4.19 0.49 8.26 -0.56 12.38 C-0.83 13.43 -1.1 14.49 -1.38 15.59 C-1.58 16.38 -1.79 17.18 -2 18 C-2.66 18 -3.32 18 -4 18 C-3.49 11.56 -2.27 6.04 0 0 Z " fill="#F4D8BC" transform="translate(415,97)"/>
<path d="M0 0 C1.32 0.66 2.64 1.32 4 2 C2.68 6.29 1.36 10.58 0 15 C-1 11 -1 11 -0.38 9.12 C0.2 5.84 -1.4 3.81 -3 1 C-2.01 0.67 -1.02 0.34 0 0 Z " fill="#F0D6BC" transform="translate(382,136)"/>
<path d="M0 0 C1.29 3.87 0.22 6.44 -0.94 10.19 C-1.23 11.17 -1.23 11.17 -1.53 12.17 C-2.01 13.78 -2.5 15.39 -3 17 C-3.66 17 -4.32 17 -5 17 C-4.55 11.73 -3.92 6.98 -2 2 C-1.34 2 -0.68 2 0 2 C0 1.34 0 0.68 0 0 Z " fill="#F4D8BC" transform="translate(851,188)"/>
<path d="M0 0 C-0.99 1.49 -0.99 1.49 -2 3 C-5.04 3.29 -5.04 3.29 -8.62 3.19 C-9.81 3.16 -11 3.13 -12.23 3.11 C-13.6 3.05 -13.6 3.05 -15 3 C-15 2.67 -15 2.34 -15 2 C-13.35 2 -11.7 2 -10 2 C-10 1.34 -10 0.68 -10 0 C-6.3 -0.95 -3.7 -0.95 0 0 Z " fill="#FBFDFD" transform="translate(986,198)"/>
<path d="M0 0 C1.18 2.36 1.56 4.53 2.06 7.12 C2.24 8.04 2.42 8.95 2.6 9.88 C2.73 10.58 2.86 11.28 3 12 C-0.3 10.46 -2.19 9.25 -4 6 C-3.88 3.88 -3.88 3.88 -3 2 C-2.01 1.34 -1.02 0.68 0 0 Z " fill="#F0D6BC" transform="translate(915,179)"/>
<path d="M0 0 C0.66 0 1.32 0 2 0 C1.37 5.78 0.35 11.34 -1 17 C-1.66 17 -2.32 17 -3 17 C-2.49 11.15 -1.55 5.67 0 0 Z " fill="#F4D9BC" transform="translate(482,146)"/>
<path d="M0 0 C1.21 2.33 2.17 4.5 3 7 C2.2 7.12 1.39 7.25 0.56 7.38 C-0.71 7.68 -0.71 7.68 -2 8 C-2.33 8.66 -2.66 9.32 -3 10 C-4 7.3 -4.04 6.12 -3.19 3.31 C-2 1 -2 1 0 0 Z " fill="#ECD3BA" transform="translate(698,182)"/>
<path d="M0 0 C-4.86 3.24 -10.05 5.56 -16 5 C-16 4.34 -16 3.68 -16 3 C-5.63 -0.44 -5.63 -0.44 0 0 Z " fill="#F3D8BC" transform="translate(723,190)"/>
<path d="M0 0 C0.99 0 1.98 0 3 0 C4.61 2.08 4.61 2.08 6.19 4.81 C6.72 5.71 7.25 6.6 7.79 7.52 C9 10 9 10 9 13 C8.34 13 7.68 13 7 13 C5.71 11.07 4.52 9.08 3.38 7.06 C2.74 5.96 2.11 4.86 1.46 3.72 C0 1 0 1 0 0 Z " fill="#3B3856" transform="translate(526,328)"/>
<path d="M0 0 C2.97 0.5 2.97 0.5 6 1 C6 1.66 6 2.32 6 3 C6.66 3.33 7.32 3.66 8 4 C6.02 6.97 6.02 6.97 4 10 C3.17 7.11 3 5.11 3 2 C2.01 2 1.02 2 0 2 C0 1.34 0 0.68 0 0 Z " fill="#F0D6BC" transform="translate(937,212)"/>
<path d="M0 0 C-2.6 3.33 -5.11 3.62 -9.19 4.19 C-10.27 4.35 -11.36 4.5 -12.48 4.67 C-13.31 4.78 -14.14 4.89 -15 5 C-15 4.34 -15 3.68 -15 3 C-13.44 2.49 -11.88 1.99 -10.31 1.5 C-9.44 1.22 -8.57 0.94 -7.68 0.66 C-5.01 0 -2.74 -0.12 0 0 Z " fill="#F3D8BC" transform="translate(557,226)"/>
<path d="M0 0 C1.38 1.29 2.71 2.63 4 4 C4 4.66 4 5.32 4 6 C3.01 6.33 2.02 6.66 1 7 C-0.23 10.51 -0.23 10.51 -1 14 C-1.33 14 -1.66 14 -2 14 C-2.21 8.81 -1.59 4.87 0 0 Z " fill="#F2D7BC" transform="translate(420,80)"/>
<path d="M0 0 C-3 2 -3 2 -5.06 2.81 C-7.68 4.41 -8.1 6.14 -9 9 C-9.33 9 -9.66 9 -10 9 C-9.67 6.03 -9.34 3.06 -9 0 C-5.52 -1.16 -3.54 -0.71 0 0 Z " fill="#F2D7BC" transform="translate(413,132)"/>
<path d="M0 0 C1 2 1 2 0.22 4.82 C-0.16 5.91 -0.54 7 -0.94 8.12 C-1.32 9.22 -1.7 10.32 -2.09 11.45 C-2.39 12.29 -2.69 13.13 -3 14 C-3.33 14 -3.66 14 -4 14 C-3.98 12.89 -3.96 11.77 -3.94 10.62 C-3.74 7.17 -3.74 7.17 -5 5 C-3.35 3.35 -1.7 1.7 0 0 Z " fill="#F0D6BC" transform="translate(488,73)"/>
<path d="M0 0 C6.37 -0.45 9.84 0.1 15 4 C15.94 6.75 15.94 6.75 16 9 C15.34 9 14.68 9 14 9 C13.67 7.35 13.34 5.7 13 4 C8.67 2.42 4.57 1.55 0 1 C0 0.67 0 0.34 0 0 Z " fill="#1C1E36" transform="translate(687,328)"/>
<path d="M0 0 C0.64 0.14 1.28 0.29 1.94 0.44 C5.29 1.05 8.61 1.35 12.01 1.62 C14 2 14 2 16 4 C9.87 4.33 5.37 4.39 0 1 C0 0.67 0 0.34 0 0 Z " fill="#F0D6BC" transform="translate(606,227)"/>
<path d="M0 0 C0 3 0 3 0 3 Z M-3 3 C-2.34 3.66 -1.68 4.32 -1 5 C-4.47 7.97 -4.47 7.97 -8 11 C-8 8 -8 8 -5.5 5.31 C-4.67 4.55 -3.85 3.79 -3 3 Z " fill="#F6DABC" transform="translate(765,208)"/>
<path d="M0 0 C5.73 0.61 11.36 1.83 17 3 C17 3.33 17 3.66 17 4 C14.56 3.89 12.12 3.76 9.69 3.62 C8.65 3.58 8.65 3.58 7.6 3.53 C3.93 3.32 2.12 3.08 -1 1 C-0.67 0.67 -0.34 0.34 0 0 Z " fill="#F0D6BC" transform="translate(446,116)"/>
<path d="M0 0 C0.66 0 1.32 0 2 0 C1.86 1.73 1.71 3.46 1.56 5.19 C1.48 6.15 1.4 7.11 1.32 8.11 C1.02 10.79 0.57 13.37 0 16 C-0.33 16 -0.66 16 -1 16 C-1.03 14.27 -1.05 12.54 -1.06 10.81 C-1.07 9.85 -1.09 8.89 -1.1 7.89 C-1 5.14 -0.62 2.68 0 0 Z " fill="#F3D8BC" transform="translate(475,178)"/>
<path d="M0 0 C0.33 0.66 0.66 1.32 1 2 C-2.75 7.88 -2.75 7.88 -5 9 C-6.32 7.35 -7.64 5.7 -9 4 C-8.34 3.34 -7.68 2.68 -7 2 C-6.34 2.33 -5.68 2.66 -5 3 C-5 3.99 -5 4.98 -5 6 C-2.98 4.07 -1.58 2.37 0 0 Z " fill="#252D55" transform="translate(497,342)"/>
<path d="M0 0 C1.32 0 2.64 0 4 0 C3.62 1.94 3.62 1.94 3 4 C2.01 4.5 2.01 4.5 1 5 C0.53 7.59 0.53 7.59 0.38 10.56 C0.3 11.57 0.23 12.59 0.15 13.63 C0.1 14.41 0.05 15.19 0 16 C-0.33 16 -0.66 16 -1 16 C-1.03 14.08 -1.05 12.17 -1.06 10.25 C-1.07 9.18 -1.09 8.12 -1.1 7.02 C-1.02 4.47 -0.75 2.42 0 0 Z " fill="#F5D9BC" transform="translate(598,197)"/>
<path d="M0 0 C0 0.66 0 1.32 0 2 C1.32 2.33 2.64 2.66 4 3 C-0.29 3 -4.58 3 -9 3 C-7.14 -0.71 -3.69 -0.1 0 0 Z " fill="#06060E" transform="translate(748,122)"/>
<path d="M0 0 C0 0.66 0 1.32 0 2 C0.99 2.33 1.98 2.66 3 3 C0.38 4.31 -1.23 3.9 -4.12 3.56 C-5.04 3.46 -5.95 3.36 -6.88 3.25 C-7.58 3.17 -8.28 3.09 -9 3 C-7.14 -0.71 -3.69 -0.1 0 0 Z " fill="#06060E" transform="translate(654,122)"/>
</svg>
